<svg width="67" height="65" viewBox="0 0 67 65" fill="none" xmlns="http://www.w3.org/2000/svg">
<path d="M33.5 0C14.994 0 0 14.5464 0 32.5C0 50.4536 14.994 65 33.5 65C52.006 65 67 50.4536 67 32.5C67 14.5464 52.006 0 33.5 0ZM33.5 12.5806C40.0649 12.5806 45.3871 17.744 45.3871 24.1129C45.3871 30.4819 40.0649 35.6452 33.5 35.6452C26.9351 35.6452 21.6129 30.4819 21.6129 24.1129C21.6129 17.744 26.9351 12.5806 33.5 12.5806ZM33.5 57.6613C25.5708 57.6613 18.4655 54.1754 13.7107 48.7238C16.2502 44.0847 21.2212 40.8871 27.0161 40.8871C27.3403 40.8871 27.6645 40.9395 27.9752 41.0312C29.7313 41.5817 31.5683 41.9355 33.5 41.9355C35.4317 41.9355 37.2823 41.5817 39.0248 41.0312C39.3355 40.9395 39.6597 40.8871 39.9839 40.8871C45.7788 40.8871 50.7498 44.0847 53.2893 48.7238C48.5345 54.1754 41.4292 57.6613 33.5 57.6613Z" fill="black"/>
</svg>
